Coordinates
version=1
nRows=4
nColumns=107
inDegrees=yes

Units are S.I. units (second, meters, Newtons, ...)
If the header above contains a line with 'inDegrees', this indicates whether rotational values are in degrees (yes) or radians (no).

endheader
time	sternoclavicular_r2	sternoclavicular_r3	unrotscap_r3	unrotscap_r2	acromioclavicular_r2	acromioclavicular_r3	acromioclavicular_r1	unrothum_r1	unrothum_r3	unrothum_r2	elv_angle	shoulder_elv	shoulder1_r2	shoulder_rot	elbow_flexion	pro_sup	deviation	flexion	proximal_distal_r1	proximal_distal_r3	cmc_flexion	cmc_abduction	mp_flexion	ip_flexion	mcp2_flexion	mcp2_abduction	pm2_flexion	md2_flexion	mcp3_flexion	mcp3_abduction	pm3_flexion	md3_flexion	mcp4_flexion	mcp4_abduction	pm4_flexion	md4_flexion	mcp5_flexion	mcp5_abduction	pm5_flexion	md5_flexion	bicpt_tx	bicpt_ty	bicpt_tz	bicpt2_tx	bicpt2_ty	bicpt2_tz	ptpt_tx	ptpt_ty	ptpt_tz	FCUpt_tx	FCUpt_ty	FCUpt_tz	EDCpt_tx	EDCpt_ty	EDCpt_tz	APLpt_tx	APLpt_ty	APLpt_tz	FPLpt_tx	FPLpt_ty	FPLpt_tz	FPLpt2_tx	FPLpt2_ty	FPLpt2_tz	PEC1pt2_tx	PEC1pt2_ty	PEC1pt2_tz	PEC1pt3_tx	PEC1pt3_ty	PEC1pt3_tz	PEC2pt2_tx	PEC2pt2_ty	PEC2pt2_tz	PEC2pt3_tx	PEC2pt3_ty	PEC2pt3_tz	PEC3pt2_tx	PEC3pt2_ty	PEC3pt2_tz	PEC3pt3_tx	PEC3pt3_ty	PEC3pt3_tz	DELT2pt2a_tx	DELT2pt2a_ty	DELT2pt2a_tz	DELT2pt2_tx	DELT2pt2_ty	DELT2pt2_tz	LAT1pt2_tx	LAT1pt2_ty	LAT1pt2_tz	LAT1pt3_tx	LAT1pt3_ty	LAT1pt3_tz	LAT2pt2_tx	LAT2pt2_ty	LAT2pt2_tz	LAT2pt3_tx	LAT2pt3_ty	LAT2pt3_tz	LAT3pt2_tx	LAT3pt2_ty	LAT3pt2_tz	LAT3pt3_tx	LAT3pt3_ty	LAT3pt3_tz
      0.00000000	     -0.32114854	      0.13602337	     -0.13602337	      0.32114854	     -0.06502605	      0.52551764	      0.23621656	     -0.23621656	     -0.52551764	      0.06502605	     98.92774795	     76.03477202	     -1.72661492	    -28.11013416	     32.09319029	     82.15421131	      0.35181406	     -0.45799823	      0.37615216	     -0.22899912	     40.98002395	    -23.48796239	     10.61371630	      8.23708262	     63.54924940	     10.31356499	     77.39034954	     47.45213180	     79.92500373	     -1.33232294	     80.97462510	     52.04199350	     79.55881671	    -12.68269946	     89.04728929	     41.27918506	     73.91935390	    -13.88431178	     95.04352525	      5.46624021	      0.00096154	     -0.03127837	     -0.00489249	      0.01462053	     -0.01891827	     -0.00172426	      0.00147973	     -0.06882514	     -0.00666796	      0.01229849	     -0.18236587	     -0.00001656	     -0.00985848	      0.00336925	     -0.00063774	      0.00029293	      0.00011717	      0.00058587	      0.00037495	      0.00112486	      0.00063274	     -0.00000913	     -0.00009152	     -0.00010983	      0.00249225	      0.00874401	      0.00608279	     -0.00815262	      0.01968457	     -0.01867078	      0.00249225	      0.00874401	      0.00608279	      0.00054914	      0.01824836	     -0.00958884	      0.00394293	      0.00486243	      0.01595539	      0.00000000	      0.00773149	      0.00000000	     -0.00713883	     -0.03299067	     -0.00637470	      0.01801640	     -0.00069311	     -0.00660068	     -0.00088707	      0.01486903	     -0.00608279	      0.00245001	      0.02145872	     -0.01774146	     -0.00595606	      0.01288368	     -0.00544916	     -0.01241902	      0.02720357	     -0.03045618	     -0.02331735	      0.01440438	     -0.00730779	     -0.01546042	      0.03142773	     -0.03805966
      0.03333333	     -0.32357539	      0.13705126	     -0.13705126	      0.32357539	     -0.06551743	      0.52948886	      0.23800160	     -0.23800160	     -0.52948886	      0.06551743	     98.65424162	     76.60935041	     -1.72184134	    -25.81185305	     31.49494645	     80.44178888	      0.37830407	     -0.46335586	      0.39627211	     -0.23167793	     39.91498388	    -23.47149431	      9.49230794	      7.99096135	     65.73243743	     10.55256721	     76.72413558	     49.38553012	     81.44039312	     -0.99701627	     80.39242444	     52.58579888	     80.21137711	    -12.80614295	     89.94485915	     40.72163409	     76.95663059	    -13.98154370	     94.29733009	      5.41121295	      0.00094176	     -0.03120980	     -0.00488144	      0.01477917	     -0.01875576	     -0.00200625	      0.00160626	     -0.06874332	     -0.00653002	      0.01210425	     -0.18242158	     -0.00005768	     -0.00965299	      0.00327776	     -0.00058710	      0.00029429	      0.00011771	      0.00058857	      0.00037669	      0.00113006	      0.00063566	     -0.00001058	     -0.00011276	     -0.00013531	      0.00251109	      0.00881008	      0.00612875	     -0.00821423	      0.01983333	     -0.01881187	      0.00251109	      0.00881008	      0.00612875	      0.00055329	      0.01838626	     -0.00966130	      0.00396465	      0.00489918	      0.01600835	      0.00000000	      0.00784961	      0.00000000	     -0.00719277	     -0.03323997	     -0.00647276	      0.01690430	     -0.00061678	     -0.00557041	     -0.00089378	      0.01498140	     -0.00612875	      0.00246853	      0.02162088	     -0.01787553	     -0.00600107	      0.01298104	     -0.00549034	     -0.01251287	      0.02740915	     -0.03068633	     -0.02349355	      0.01451323	     -0.00736302	     -0.01557725	      0.03166522	     -0.03834727
      0.06666667	     -0.31907190	      0.13514380	     -0.13514380	      0.31907190	     -0.06460557	      0.52211949	      0.23468912	     -0.23468912	     -0.52211949	      0.06460557	     99.98390892	     75.54310858	     -1.74504841	    -31.17814457	     31.30492259	     84.46968156	      0.34820896	     -0.56242408	      0.37332503	     -0.28121204	     39.31061150	    -23.41061018	      9.18603468	      8.58777544	     67.44354580	     11.09080018	     76.60751056	     50.56466268	     82.42266061	     -0.45920258	     80.27199312	     51.99182480	     80.28686812	    -12.74992494	     90.92526534	     40.54097088	     78.67350259	    -14.01493402	     94.31949853	      5.41524576	      0.00093547	     -0.03118802	     -0.00487794	      0.01439541	     -0.01870414	     -0.00133646	      0.00130864	     -0.06893576	     -0.00685449	      0.01256257	     -0.18228923	      0.00004253	     -0.01013634	      0.00349440	     -0.00070871	      0.00031053	      0.00012421	      0.00062107	      0.00039748	      0.00119245	      0.00067076	     -0.00001123	     -0.00012425	     -0.00014910	      0.00247614	      0.00868746	      0.00604345	     -0.00809991	      0.01955729	     -0.01855005	      0.00247614	      0.00868746	      0.00604345	      0.00054559	      0.01813036	     -0.00952683	      0.00392425	      0.00483099	      0.01590944	      0.00000000	      0.00763114	      0.00000000	     -0.00709266	     -0.03277734	     -0.00629138	      0.01939100	     -0.00079750	     -0.00808082	     -0.00088134	      0.01477289	     -0.00604345	      0.00243417	      0.02131996	     -0.01762674	     -0.00591755	      0.01280037	     -0.00541393	     -0.01233872	      0.02702767	     -0.03025924	     -0.02316657	      0.01431123	     -0.00726054	     -0.01536045	      0.03122451	     -0.03781355
      0.10000000	     -0.31926713	      0.13522649	     -0.13522649	      0.31926713	     -0.06464510	      0.52243895	      0.23483271	     -0.23483271	     -0.52243895	      0.06464510	    100.08543553	     75.58933058	     -1.74682038	    -31.17626709	     31.04834423	     84.48275993	      0.35327582	     -0.58170873	      0.37729229	     -0.29085436	     38.65775395	    -23.36500561	      8.73683918	      8.88280553	     68.53309062	     11.20616057	     76.14351981	     52.09670869	     83.40579448	     -0.28859628	     80.20276383	     51.58649031	     80.53898397	    -12.78880511	     91.39831182	     40.24269510	     79.98588263	    -14.05481207	     93.92355988	      5.41898392	      0.00092698	     -0.03115861	     -0.00487320	      0.01439411	     -0.01863444	     -0.00133425	      0.00130768	     -0.06893639	     -0.00685554	      0.01256406	     -0.18228879	      0.00004287	     -0.01013791	      0.00349511	     -0.00070912	      0.00031179	      0.00012472	      0.00062358	      0.00039909	      0.00119727	      0.00067346	     -0.00001181	     -0.00013621	     -0.00016345	      0.00247765	      0.00869278	      0.00604715	     -0.00810486	      0.01956925	     -0.01856140	      0.00247765	      0.00869278	      0.00604715	      0.00054592	      0.01814145	     -0.00953266	      0.00392601	      0.00483394	      0.01591379	      0.00000000	      0.00764055	      0.00000000	     -0.00709700	     -0.03279740	     -0.00629919	      0.01939021	     -0.00079744	     -0.00807987	     -0.00088188	      0.01478193	     -0.00604715	      0.00243566	      0.02133301	     -0.01763753	     -0.00592117	      0.01280820	     -0.00541724	     -0.01234627	      0.02704421	     -0.03027775	     -0.02318075	      0.01431999	     -0.00726498	     -0.01536984	      0.03124362	     -0.03783669
